<?xml version="1.0" ?>

<!-- Uploaded to: SVG Repo, www.svgrepo.com, Generator: SVG Repo Mixer Tools -->
<svg fill="#c0c0c0" width="800px" height="800px" viewBox="0 0 48 48" id="Layer_1" version="1.1" xml:space="preserve" xmlns="http://www.w3.org/2000/svg" xmlns:xlink="http://www.w3.org/1999/xlink">

<g>

<path d="M10.893,33.017v3.472H9.46c-0.134,0-0.243,0.109-0.243,0.243v4.025c0,0.006,0.001,0.011,0.002,0.017   c0.001,0.008,0.001,0.017,0.003,0.025c0.001,0.008,0.004,0.016,0.006,0.024c0.002,0.007,0.004,0.015,0.007,0.022   c0.003,0.008,0.007,0.015,0.01,0.022c0.003,0.007,0.007,0.014,0.011,0.02c0.004,0.007,0.009,0.013,0.015,0.02   c0.005,0.006,0.009,0.012,0.014,0.017c0.006,0.007,0.013,0.012,0.02,0.018c0.004,0.003,0.007,0.007,0.012,0.011   c0.001,0.001,0.003,0.002,0.005,0.003c0.004,0.003,0.009,0.006,0.014,0.008c0.008,0.005,0.016,0.01,0.025,0.013   c0.005,0.002,0.01,0.004,0.015,0.006c0.009,0.004,0.019,0.006,0.028,0.009c0.005,0.001,0.009,0.002,0.014,0.003   C9.431,40.998,9.445,41,9.46,41c0,0,0,0,0,0c0,0,0,0,0,0h29.08c0.134,0,0.243-0.109,0.243-0.243v-4.025   c0-0.134-0.109-0.243-0.243-0.243h-1.545v-3.472c0-0.134-0.109-0.243-0.243-0.243h-7.413c-0.134,0-0.243,0.109-0.243,0.243v3.472   H18.792v-3.472c0-0.134-0.109-0.243-0.243-0.243h-7.413C11.002,32.774,10.893,32.882,10.893,33.017z M11.136,36.975h0.811   l-2.244,3.043v-3.043H11.136z M20.921,36.975l-2.61,3.539h-2.387l2.61-3.539h0.015H20.921z M23.913,36.975l-2.61,3.539h-2.387   l2.61-3.539H23.913z M26.904,36.975l-2.61,3.539h-2.387l2.61-3.539H26.904z M29.339,36.975h0.557l-2.61,3.539h-2.387l2.61-3.539   H29.339z M30.882,40.514l2.61-3.539h2.387l-2.61,3.539H30.882z M30.277,40.514H27.89l2.61-3.539h2.387L30.277,40.514z    M15.32,40.514h-2.387l2.61-3.539h2.387L15.32,40.514z M12.329,40.514H9.942l2.61-3.539h2.387L12.329,40.514z M36.864,40.514   l1.432-1.942v1.942H36.864z M38.297,37.752l-2.036,2.761h-2.387l2.61-3.539h0.269h1.545V37.752z M29.582,33.26h6.927v3.229h-6.927   V33.26z M11.379,33.26h6.927v3.229h-6.927V33.26z"/>

<path d="M26.222,20.106c0.001-0.008,0.002-0.017,0.003-0.025c0.003-0.03,0.005-0.061,0.007-0.092c0-0.007,0.001-0.014,0.002-0.021   c0.002-0.039,0.003-0.08,0.003-0.122c0-1.233-1.003-2.236-2.236-2.236c-0.452,0-0.907,0.144-1.282,0.405   c-0.007,0.005-0.015,0.011-0.021,0.017c-0.011,0.009-0.03,0.024-0.05,0.046c-0.553,0.406-0.883,1.064-0.883,1.769   c0,0.736,0.357,1.424,0.954,1.841c0.375,0.261,0.83,0.405,1.282,0.405c0.066,0,0.132-0.003,0.197-0.009   c0.03-0.003,0.059-0.008,0.088-0.012c0.035-0.005,0.07-0.008,0.104-0.014c0.889-0.16,1.617-0.855,1.801-1.766c0,0,0-0.001,0-0.001   c0-0.001,0-0.001,0.001-0.002c0.005-0.022,0.009-0.045,0.013-0.068c0.002-0.011,0.004-0.021,0.006-0.032   C26.215,20.161,26.218,20.133,26.222,20.106z M22.996,21.287c-0.467-0.326-0.746-0.865-0.746-1.442c0-0.56,0.265-1.081,0.708-1.394   c0.018-0.013,0.035-0.028,0.049-0.046c0.292-0.2,0.644-0.31,0.993-0.31c0.965,0,1.75,0.785,1.75,1.75   c0,0.132-0.01,0.239-0.034,0.343c-0.166,0.821-0.887,1.417-1.715,1.417C23.647,21.605,23.29,21.492,22.996,21.287z"/>

<path d="M32.928,12.171c0.375,0.261,0.83,0.405,1.282,0.405c1.058,0,1.979-0.758,2.191-1.804c0.03-0.133,0.045-0.274,0.045-0.442   c0-1.233-1.003-2.236-2.236-2.236c-0.452,0-0.907,0.144-1.282,0.405c-0.007,0.005-0.015,0.011-0.021,0.017   c-0.011,0.009-0.03,0.024-0.05,0.046c-0.553,0.406-0.883,1.064-0.883,1.769C31.974,11.065,32.331,11.753,32.928,12.171z    M33.168,8.936c0.018-0.013,0.035-0.028,0.049-0.046c0.292-0.2,0.644-0.31,0.993-0.31c0.965,0,1.75,0.785,1.75,1.75   c0,0.132-0.01,0.239-0.033,0.336c0,0.002-0.001,0.004-0.001,0.006c-0.166,0.821-0.887,1.417-1.715,1.417   c-0.353,0-0.71-0.113-1.004-0.318c-0.467-0.326-0.746-0.865-0.746-1.442C32.46,9.77,32.725,9.249,33.168,8.936z"/>

<path d="M34.702,13.627c0.616-0.095,1.19-0.353,1.658-0.747c0.757-0.636,1.191-1.565,1.191-2.55c0-0.198-0.013-0.363-0.042-0.519   C37.259,8.203,35.895,7.021,34.259,7H34.21c-0.755,0-1.483,0.252-2.065,0.713H11.878c-0.134,0-0.243,0.109-0.243,0.243v2.354   c0,0.123,0.092,0.227,0.215,0.241l16.176,1.886l-4.078,4.078c-0.778,0.012-1.525,0.291-2.109,0.791   c-0.554,0.478-0.943,1.126-1.094,1.82c-0.057,0.253-0.084,0.481-0.084,0.718c0,0.758,0.263,1.496,0.742,2.089v2.492H21.15   c-0.134,0-0.243,0.109-0.243,0.243v0.706h-0.375c-0.117,0-0.217,0.083-0.239,0.197l-0.518,2.706   c-0.017,0.09,0.018,0.183,0.091,0.239c0.001,0.001,0.002,0.001,0.003,0.002v3.521c0,0.134,0.109,0.243,0.243,0.243h7.413   c0.134,0,0.243-0.109,0.243-0.243v-3.52c0.001-0.001,0.002-0.001,0.004-0.002c0.073-0.056,0.108-0.149,0.09-0.239l-0.527-2.706   c-0.022-0.114-0.122-0.197-0.239-0.197h-0.367v-0.706c0-0.134-0.109-0.243-0.243-0.243h-0.25v-2.108   c0.702-0.633,1.104-1.527,1.104-2.473c0-0.141-0.007-0.264-0.021-0.38l7.364-5.835C34.689,13.629,34.695,13.628,34.702,13.627z    M34.256,7.486c1.395,0.018,2.561,1.028,2.772,2.402c0,0.003,0.001,0.005,0.001,0.008c0.024,0.127,0.035,0.265,0.035,0.434   c0,0.841-0.371,1.635-1.017,2.178c-0.382,0.322-0.848,0.536-1.35,0.626c-0.039-0.012-0.08-0.014-0.122-0.006   c-0.124,0.026-0.258,0.039-0.397,0.039c-0.54,0-1.068-0.155-1.522-0.442c-0.101-0.066-0.198-0.138-0.291-0.217   c-0.123-0.104-0.227-0.211-0.318-0.326c-0.002-0.003-0.004-0.005-0.006-0.008c-0.441-0.516-0.684-1.171-0.684-1.845   c0-0.2,0.023-0.394,0.073-0.613c0.129-0.594,0.462-1.148,0.936-1.557c0.509-0.435,1.164-0.674,1.845-0.674H34.256z M12.121,8.2   h19.481c-0.335,0.41-0.566,0.883-0.678,1.391c-0.055,0.227-0.081,0.462-0.081,0.72c0,0.747,0.248,1.464,0.695,2.044l-2.957-0.341   l-16.46-1.92V8.2z M28.641,12.51l3.433,0.396c0.082,0.066,0.167,0.127,0.254,0.185c0.457,0.312,0.988,0.506,1.544,0.562   l-6.661,5.278c-0.129-0.46-0.352-0.875-0.647-1.227c-0.003-0.004-0.007-0.008-0.01-0.012c-0.092-0.108-0.19-0.21-0.294-0.306   c-0.013-0.011-0.025-0.023-0.038-0.034c-0.047-0.042-0.095-0.082-0.144-0.121c-0.016-0.013-0.033-0.025-0.049-0.037   c-0.035-0.027-0.071-0.053-0.107-0.078c-0.022-0.016-0.044-0.031-0.067-0.046c-0.044-0.029-0.089-0.057-0.134-0.084   c-0.031-0.018-0.062-0.036-0.093-0.053c-0.022-0.012-0.043-0.023-0.065-0.035c-0.062-0.033-0.126-0.063-0.19-0.092   c-0.012-0.005-0.024-0.011-0.036-0.016c-0.237-0.102-0.487-0.18-0.748-0.225L28.641,12.51z M27.283,31.797h-6.927v-3.229h6.927   V31.797z M21.071,28.081l2.743-1.333l2.751,1.333H21.071z M27.292,27.893l-3.372-1.634c-0.067-0.032-0.145-0.032-0.212,0   l-3.364,1.634l0.389-2.032h0.417h5.336h0.41L27.292,27.893z M26.243,25.375h-4.85v-0.463h0.236c0.005,0,0.011,0.002,0.016,0.002   h4.347c0.005,0,0.011-0.001,0.016-0.002h0.234V25.375z M21.889,24.426v-1.991c0.011,0.009,0.023,0.018,0.035,0.027   c0.018,0.014,0.035,0.028,0.053,0.042c0.021,0.016,0.041,0.031,0.062,0.046c0.018,0.013,0.036,0.026,0.055,0.039   c0.021,0.015,0.042,0.029,0.064,0.043c0.019,0.012,0.038,0.025,0.057,0.037c0.022,0.014,0.043,0.027,0.065,0.04   c0.019,0.012,0.039,0.023,0.058,0.035c0.022,0.013,0.044,0.025,0.067,0.037c0.02,0.011,0.04,0.022,0.06,0.032   c0.023,0.012,0.046,0.023,0.069,0.034c0.02,0.01,0.04,0.02,0.061,0.029c0.023,0.011,0.047,0.021,0.07,0.031   c0.021,0.009,0.041,0.018,0.062,0.026c0.024,0.01,0.048,0.019,0.072,0.028c0.021,0.008,0.042,0.016,0.063,0.024   c0.024,0.009,0.049,0.017,0.073,0.025c0.021,0.007,0.042,0.014,0.064,0.021c0.025,0.008,0.05,0.015,0.075,0.022   c0.021,0.006,0.043,0.013,0.064,0.018c0.025,0.007,0.051,0.013,0.076,0.019c0.021,0.005,0.043,0.011,0.064,0.015   c0.026,0.006,0.052,0.011,0.078,0.016c0.021,0.004,0.043,0.009,0.064,0.012c0.027,0.005,0.054,0.009,0.081,0.013   c0.021,0.003,0.042,0.007,0.063,0.009c0.029,0.004,0.058,0.007,0.087,0.01c0.019,0.002,0.039,0.005,0.058,0.006   c0.032,0.003,0.065,0.005,0.098,0.006c0.016,0.001,0.032,0.002,0.048,0.003c0.049,0.002,0.098,0.003,0.147,0.003   c0.188,0,0.344-0.014,0.492-0.043c0.069-0.011,0.137-0.024,0.205-0.039c0.019-0.004,0.039-0.009,0.058-0.013   c0.052-0.012,0.103-0.026,0.155-0.04c0.017-0.005,0.035-0.01,0.052-0.015c0.066-0.02,0.131-0.041,0.195-0.065   c0.011-0.004,0.022-0.009,0.032-0.013c0.054-0.02,0.107-0.042,0.16-0.066c0.019-0.008,0.037-0.017,0.056-0.025   c0.05-0.023,0.099-0.047,0.147-0.072c0.013-0.007,0.026-0.013,0.039-0.02c0.054-0.029,0.107-0.059,0.159-0.091v1.743H21.889z    M25.836,22.023c-0.401,0.337-0.893,0.558-1.424,0.639c-0.004,0.001-0.007,0.001-0.011,0.002c-0.117,0.023-0.245,0.034-0.402,0.034   c-0.681,0-1.336-0.24-1.846-0.675c-0.123-0.104-0.227-0.211-0.318-0.326c-0.002-0.003-0.004-0.005-0.006-0.008   c-0.441-0.516-0.684-1.171-0.684-1.845c0-0.2,0.023-0.394,0.073-0.613c0.129-0.594,0.462-1.148,0.936-1.557   c0.509-0.435,1.164-0.674,1.845-0.674h0.046c0.727,0.009,1.391,0.288,1.89,0.747c0.458,0.422,0.778,0.995,0.878,1.652   c0.001,0.007,0.004,0.013,0.006,0.019c0.023,0.125,0.034,0.26,0.034,0.426C26.854,20.686,26.483,21.48,25.836,22.023z"/>

</g>

</svg>