<?xml version="1.0" encoding="iso-8859-1"?>
<!-- Uploaded to: SVG Repo, www.svgrepo.com, Generator: SVG Repo Mixer Tools -->
<svg height="800px" width="800px" version="1.1" id="Capa_1" xmlns="http://www.w3.org/2000/svg" xmlns:xlink="http://www.w3.org/1999/xlink" 
	 viewBox="0 0 18.566 18.566" xml:space="preserve">
<g>
	<path style="fill:#030104;" d="M17.705,11.452h-0.73v-3.65c0.929-0.352,1.591-1.247,1.591-2.299c0-1.359-1.102-2.46-2.461-2.46
		c-1.044,0-1.936,0.651-2.291,1.568h-1.668V4.522c0-0.475-0.384-0.86-0.859-0.86h-5.2c-0.475,0-0.859,0.386-0.859,0.86V4.61H3.566
		V2.924c0-0.475-0.385-0.86-0.859-0.86H1.24c-0.475,0-0.859,0.385-0.859,0.86v5.199c0,0.476,0.385,0.859,0.859,0.859h1.467
		c0.474,0,0.859-0.384,0.859-0.859V5.9h1.663v0.089c0,0.475,0.384,0.86,0.859,0.86h5.199c0.476,0,0.859-0.385,0.859-0.86V5.9h1.533
		c0.168,1.032,0.977,1.848,2.006,2.025v3.527h-3.179c-0.475,0-0.859,0.385-0.859,0.858v0.089H9.851v-1.955
		c0-0.474-0.386-0.859-0.86-0.859H7.524c-0.475,0-0.859,0.386-0.859,0.859v1.955H4.833c-0.284-1.046-1.237-1.815-2.372-1.815
		C1.102,10.584,0,11.686,0,13.044c0,1.359,1.102,2.46,2.461,2.46c1.136,0,2.088-0.769,2.372-1.815h1.832v1.955
		c0,0.476,0.385,0.859,0.859,0.859h1.467c0.474,0,0.86-0.384,0.86-0.859v-1.955h1.796v0.089c0,0.476,0.385,0.859,0.859,0.859h5.199
		c0.476,0,0.86-0.384,0.86-0.859v-1.467C18.565,11.837,18.18,11.452,17.705,11.452z"/>
</g>
</svg>